<svg viewBox="0 0 760 450" xmlns="http://www.w3.org/2000/svg" font-family="-apple-system, BlinkMacSystemFont, 'Segoe UI', Helvetica, Arial, sans-serif">
  <defs>
    <pattern id="hatch" width="7" height="7" patternTransform="rotate(45)" patternUnits="userSpaceOnUse">
      <rect width="7" height="7" fill="#f4ece2"/>
      <line x1="0" y1="0" x2="0" y2="7" stroke="#cd9f6f" stroke-width="1.3"/>
    </pattern>
    <marker id="arrow" viewBox="0 0 10 10" refX="8" refY="5" markerWidth="7.5" markerHeight="7.5" orient="auto-start-reverse">
      <path d="M0 0 L10 5 L0 10 z" fill="#6b7280"/>
    </marker>
  </defs>

  <!-- y axis -->
  <line x1="66.0" y1="98.0" x2="66.0" y2="366.0" stroke="#d3dae2" stroke-width="1"/>
  <text x="26" y="215.0" transform="rotate(-90 26 215.0)" text-anchor="middle" font-size="11.5" fill="#6b7280">How often a site produces them</text>

  <!-- area + curve -->
  <path d="M 66.00 366.00 L 67.55 366.00 L 69.10 366.00 L 70.65 366.00 L 72.21 366.00 L 73.76 366.00 L 75.31 366.00 L 76.86 365.99 L 78.41 365.97 L 79.96 365.94 L 81.51 365.87 L 83.06 365.77 L 84.62 365.60 L 86.17 365.36 L 87.72 365.01 L 89.27 364.53 L 90.82 363.90 L 92.37 363.08 L 93.92 362.07 L 95.47 360.83 L 97.03 359.34 L 98.58 357.58 L 100.13 355.54 L 101.68 353.21 L 103.23 350.58 L 104.78 347.64 L 106.33 344.40 L 107.89 340.85 L 109.44 337.01 L 110.99 332.87 L 112.54 328.47 L 114.09 323.79 L 115.64 318.88 L 117.19 313.73 L 118.74 308.38 L 120.30 302.84 L 121.85 297.13 L 123.40 291.28 L 124.95 285.31 L 126.50 279.24 L 128.05 273.09 L 129.60 266.88 L 131.16 260.65 L 132.71 254.40 L 134.26 248.16 L 135.81 241.94 L 137.36 235.78 L 138.91 229.67 L 140.46 223.65 L 142.01 217.72 L 143.57 211.90 L 145.12 206.20 L 146.67 200.64 L 148.22 195.22 L 149.77 189.95 L 151.32 184.85 L 152.87 179.92 L 154.42 175.17 L 155.98 170.60 L 157.53 166.22 L 159.08 162.03 L 160.63 158.03 L 162.18 154.24 L 163.73 150.64 L 165.28 147.24 L 166.84 144.05 L 168.39 141.05 L 169.94 138.25 L 171.49 135.66 L 173.04 133.25 L 174.59 131.04 L 176.14 129.02 L 177.69 127.19 L 179.25 125.55 L 180.80 124.08 L 182.35 122.79 L 183.90 121.68 L 185.45 120.74 L 187.00 119.95 L 188.55 119.33 L 190.11 118.87 L 191.66 118.56 L 193.21 118.39 L 194.76 118.36 L 196.31 118.47 L 197.86 118.71 L 199.41 119.08 L 200.96 119.57 L 202.52 120.17 L 204.07 120.89 L 205.62 121.71 L 207.17 122.64 L 208.72 123.67 L 210.27 124.78 L 211.82 125.99 L 213.37 127.28 L 214.93 128.65 L 216.48 130.10 L 218.03 131.62 L 219.58 133.21 L 221.13 134.86 L 222.68 136.57 L 224.23 138.34 L 225.79 140.16 L 227.34 142.03 L 228.89 143.94 L 230.44 145.90 L 231.99 147.90 L 233.54 149.93 L 235.09 151.99 L 236.64 154.09 L 238.20 156.21 L 239.75 158.36 L 241.30 160.53 L 242.85 162.73 L 244.40 164.93 L 245.95 167.16 L 247.50 169.40 L 249.05 171.64 L 250.61 173.90 L 252.16 176.17 L 253.71 178.43 L 255.26 180.71 L 256.81 182.98 L 258.36 185.26 L 259.91 187.53 L 261.47 189.80 L 263.02 192.07 L 264.57 194.33 L 266.12 196.59 L 267.67 198.84 L 269.22 201.08 L 270.77 203.31 L 272.32 205.52 L 273.88 207.73 L 275.43 209.93 L 276.98 212.11 L 278.53 214.27 L 280.08 216.42 L 281.63 218.56 L 283.18 220.68 L 284.74 222.78 L 286.29 224.87 L 287.84 226.94 L 289.39 228.99 L 290.94 231.02 L 292.49 233.03 L 294.04 235.02 L 295.59 237.00 L 297.15 238.95 L 298.70 240.88 L 300.25 242.80 L 301.80 244.69 L 303.35 246.56 L 304.90 248.41 L 306.45 250.23 L 308.00 252.04 L 309.56 253.83 L 311.11 255.59 L 312.66 257.33 L 314.21 259.05 L 315.76 260.75 L 317.31 262.43 L 318.86 264.09 L 320.42 265.72 L 321.97 267.33 L 323.52 268.92 L 325.07 270.49 L 326.62 272.04 L 328.17 273.57 L 329.72 275.08 L 331.27 276.56 L 332.83 278.03 L 334.38 279.47 L 335.93 280.89 L 337.48 282.30 L 339.03 283.68 L 340.58 285.04 L 342.13 286.38 L 343.68 287.70 L 345.24 289.01 L 346.79 290.29 L 348.34 291.55 L 349.89 292.80 L 351.44 294.02 L 352.99 295.23 L 354.54 296.42 L 356.10 297.59 L 357.65 298.74 L 359.20 299.87 L 360.75 300.99 L 362.30 302.09 L 363.85 303.17 L 365.40 304.23 L 366.95 305.28 L 368.51 306.31 L 370.06 307.32 L 371.61 308.32 L 373.16 309.30 L 374.71 310.26 L 376.26 311.21 L 377.81 312.15 L 379.37 313.07 L 380.92 313.97 L 382.47 314.86 L 384.02 315.73 L 385.57 316.59 L 387.12 317.44 L 388.67 318.27 L 390.22 319.09 L 391.78 319.89 L 393.33 320.68 L 394.88 321.46 L 396.43 322.22 L 397.98 322.97 L 399.53 323.71 L 401.08 324.44 L 402.63 325.15 L 404.19 325.85 L 405.74 326.54 L 407.29 327.22 L 408.84 327.89 L 410.39 328.55 L 411.94 329.19 L 413.49 329.82 L 415.05 330.44 L 416.60 331.06 L 418.15 331.66 L 419.70 332.25 L 421.25 332.83 L 422.80 333.40 L 424.35 333.96 L 425.90 334.51 L 427.46 335.05 L 429.01 335.59 L 430.56 336.11 L 432.11 336.62 L 433.66 337.13 L 435.21 337.62 L 436.76 338.11 L 438.32 338.59 L 439.87 339.06 L 441.42 339.52 L 442.97 339.98 L 444.52 340.43 L 446.07 340.86 L 447.62 341.30 L 449.17 341.72 L 450.73 342.14 L 452.28 342.55 L 453.83 342.95 L 455.38 343.34 L 456.93 343.73 L 458.48 344.11 L 460.03 344.49 L 461.58 344.85 L 463.14 345.22 L 464.69 345.57 L 466.24 345.92 L 467.79 346.26 L 469.34 346.60 L 470.89 346.93 L 472.44 347.26 L 474.00 347.58 L 475.55 347.89 L 477.10 348.20 L 478.65 348.50 L 480.20 348.80 L 481.75 349.09 L 483.30 349.38 L 484.85 349.66 L 486.41 349.94 L 487.96 350.21 L 489.51 350.48 L 491.06 350.74 L 492.61 351.00 L 494.16 351.26 L 495.71 351.51 L 497.26 351.75 L 498.82 351.99 L 500.37 352.23 L 501.92 352.46 L 503.47 352.69 L 505.02 352.92 L 506.57 353.14 L 508.12 353.35 L 509.68 353.57 L 511.23 353.78 L 512.78 353.98 L 514.33 354.18 L 515.88 354.38 L 517.43 354.58 L 518.98 354.77 L 520.53 354.96 L 522.09 355.14 L 523.64 355.32 L 525.19 355.50 L 526.74 355.68 L 528.29 355.85 L 529.84 356.02 L 531.39 356.19 L 532.95 356.35 L 534.50 356.51 L 536.05 356.67 L 537.60 356.82 L 539.15 356.98 L 540.70 357.13 L 542.25 357.27 L 543.80 357.42 L 545.36 357.56 L 546.91 357.70 L 548.46 357.84 L 550.01 357.97 L 551.56 358.11 L 553.11 358.24 L 554.66 358.36 L 556.21 358.49 L 557.77 358.61 L 559.32 358.74 L 560.87 358.86 L 562.42 358.97 L 563.97 359.09 L 565.52 359.20 L 567.07 359.31 L 568.63 359.42 L 570.18 359.53 L 571.73 359.64 L 573.28 359.74 L 574.83 359.84 L 576.38 359.94 L 577.93 360.04 L 579.48 360.14 L 581.04 360.23 L 582.59 360.33 L 584.14 360.42 L 585.69 360.51 L 587.24 360.60 L 588.79 360.69 L 590.34 360.77 L 591.89 360.86 L 593.45 360.94 L 595.00 361.02 L 596.55 361.10 L 598.10 361.18 L 599.65 361.26 L 601.20 361.34 L 602.75 361.41 L 604.31 361.49 L 605.86 361.56 L 607.41 361.63 L 608.96 361.70 L 610.51 361.77 L 612.06 361.84 L 613.61 361.90 L 615.16 361.97 L 616.72 362.03 L 618.27 362.10 L 619.82 362.16 L 621.37 362.22 L 622.92 362.28 L 624.47 362.34 L 626.02 362.40 L 627.58 362.46 L 629.13 362.51 L 630.68 362.57 L 632.23 362.62 L 633.78 362.67 L 635.33 362.73 L 636.88 362.78 L 638.43 362.83 L 639.99 362.88 L 641.54 362.93 L 643.09 362.98 L 644.64 363.03 L 646.19 363.07 L 647.74 363.12 L 649.29 363.16 L 650.84 363.21 L 652.40 363.25 L 653.95 363.29 L 655.50 363.34 L 657.05 363.38 L 658.60 363.42 L 660.15 363.46 L 661.70 363.50 L 663.26 363.54 L 664.81 363.58 L 666.36 363.61 L 667.91 363.65 L 669.46 363.69 L 671.01 363.72 L 672.56 363.76 L 674.11 363.79 L 675.67 363.83 L 677.22 363.86 L 678.77 363.89 L 680.32 363.93 L 681.87 363.96 L 683.42 363.99 L 684.97 364.02 L 686.53 364.05 L 688.08 364.08 L 689.63 364.11 L 691.18 364.14 L 692.73 364.17 L 694.28 364.20 L 695.83 364.22 L 697.38 364.25 L 698.94 364.28 L 700.49 364.30 L 702.04 364.33 L 703.59 364.36 L 705.14 364.38 L 706.69 364.40 L 708.24 364.43 L 709.79 364.45 L 711.35 364.48 L 712.90 364.50 L 714.45 364.52 L 716.00 364.54 L 716.00 366.00 L 66.00 366.00 Z" fill="#eef2f6"/>
  <path d="M 173.04 366.00 L 173.04 133.25 L 174.59 131.04 L 176.14 129.02 L 177.69 127.19 L 179.25 125.55 L 180.80 124.08 L 182.35 122.79 L 183.90 121.68 L 185.45 120.74 L 187.00 119.95 L 188.55 119.33 L 190.11 118.87 L 191.66 118.56 L 193.21 118.39 L 194.76 118.36 L 196.31 118.47 L 197.86 118.71 L 199.41 119.08 L 200.96 119.57 L 202.52 120.17 L 204.07 120.89 L 205.62 121.71 L 207.17 122.64 L 208.72 123.67 L 210.27 124.78 L 211.82 125.99 L 213.37 127.28 L 214.93 128.65 L 216.48 130.10 L 218.03 131.62 L 219.58 133.21 L 221.13 134.86 L 222.68 136.57 L 224.23 138.34 L 225.79 140.16 L 227.34 142.03 L 228.89 143.94 L 230.44 145.90 L 231.99 147.90 L 233.54 149.93 L 235.09 151.99 L 236.64 154.09 L 238.20 156.21 L 239.75 158.36 L 241.30 160.53 L 242.85 162.73 L 244.40 164.93 L 245.95 167.16 L 247.50 169.40 L 249.05 171.64 L 250.61 173.90 L 252.16 176.17 L 252.16 366.00 Z" fill="#8ba6c9"/>
  <path d="M 363.85 366.00 L 363.85 303.17 L 365.40 304.23 L 366.95 305.28 L 368.51 306.31 L 370.06 307.32 L 371.61 308.32 L 373.16 309.30 L 374.71 310.26 L 376.26 311.21 L 377.81 312.15 L 379.37 313.07 L 380.92 313.97 L 382.47 314.86 L 384.02 315.73 L 385.57 316.59 L 387.12 317.44 L 388.67 318.27 L 390.22 319.09 L 391.78 319.89 L 393.33 320.68 L 394.88 321.46 L 396.43 322.22 L 397.98 322.97 L 399.53 323.71 L 401.08 324.44 L 402.63 325.15 L 404.19 325.85 L 405.74 326.54 L 407.29 327.22 L 408.84 327.89 L 410.39 328.55 L 411.94 329.19 L 413.49 329.82 L 415.05 330.44 L 416.60 331.06 L 418.15 331.66 L 419.70 332.25 L 421.25 332.83 L 422.80 333.40 L 424.35 333.96 L 425.90 334.51 L 427.46 335.05 L 429.01 335.59 L 430.56 336.11 L 432.11 336.62 L 433.66 337.13 L 435.21 337.62 L 436.76 338.11 L 438.32 338.59 L 439.87 339.06 L 441.42 339.52 L 442.97 339.98 L 444.52 340.43 L 446.07 340.86 L 447.62 341.30 L 449.17 341.72 L 450.73 342.14 L 452.28 342.55 L 453.83 342.95 L 455.38 343.34 L 456.93 343.73 L 458.48 344.11 L 460.03 344.49 L 461.58 344.85 L 463.14 345.22 L 464.69 345.57 L 466.24 345.92 L 467.79 346.26 L 469.34 346.60 L 470.89 346.93 L 472.44 347.26 L 474.00 347.58 L 475.55 347.89 L 477.10 348.20 L 478.65 348.50 L 480.20 348.80 L 481.75 349.09 L 483.30 349.38 L 484.85 349.66 L 486.41 349.94 L 487.96 350.21 L 489.51 350.48 L 491.06 350.74 L 492.61 351.00 L 494.16 351.26 L 495.71 351.51 L 497.26 351.75 L 498.82 351.99 L 500.37 352.23 L 501.92 352.46 L 503.47 352.69 L 505.02 352.92 L 506.57 353.14 L 508.12 353.35 L 509.68 353.57 L 511.23 353.78 L 512.78 353.98 L 514.33 354.18 L 515.88 354.38 L 517.43 354.58 L 518.98 354.77 L 520.53 354.96 L 522.09 355.14 L 523.64 355.32 L 525.19 355.50 L 526.74 355.68 L 528.29 355.85 L 529.84 356.02 L 531.39 356.19 L 532.95 356.35 L 534.50 356.51 L 536.05 356.67 L 537.60 356.82 L 539.15 356.98 L 540.70 357.13 L 542.25 357.27 L 543.80 357.42 L 545.36 357.56 L 546.91 357.70 L 548.46 357.84 L 550.01 357.97 L 551.56 358.11 L 553.11 358.24 L 554.66 358.36 L 556.21 358.49 L 557.77 358.61 L 559.32 358.74 L 560.87 358.86 L 562.42 358.97 L 563.97 359.09 L 565.52 359.20 L 567.07 359.31 L 568.63 359.42 L 570.18 359.53 L 571.73 359.64 L 573.28 359.74 L 574.83 359.84 L 576.38 359.94 L 577.93 360.04 L 579.48 360.14 L 581.04 360.23 L 582.59 360.33 L 584.14 360.42 L 585.69 360.51 L 587.24 360.60 L 588.79 360.69 L 590.34 360.77 L 591.89 360.86 L 593.45 360.94 L 595.00 361.02 L 596.55 361.10 L 598.10 361.18 L 599.65 361.26 L 601.20 361.34 L 602.75 361.41 L 604.31 361.49 L 605.86 361.56 L 607.41 361.63 L 608.96 361.70 L 610.51 361.77 L 612.06 361.84 L 613.61 361.90 L 615.16 361.97 L 616.72 362.03 L 618.27 362.10 L 619.82 362.16 L 621.37 362.22 L 622.92 362.28 L 624.47 362.34 L 626.02 362.40 L 627.58 362.46 L 629.13 362.51 L 630.68 362.57 L 632.23 362.62 L 633.78 362.67 L 635.33 362.73 L 636.88 362.78 L 638.43 362.83 L 639.99 362.88 L 641.54 362.93 L 643.09 362.98 L 644.64 363.03 L 646.19 363.07 L 647.74 363.12 L 649.29 363.16 L 650.84 363.21 L 652.40 363.25 L 653.95 363.29 L 655.50 363.34 L 657.05 363.38 L 658.60 363.42 L 660.15 363.46 L 661.70 363.50 L 663.26 363.54 L 664.81 363.58 L 666.36 363.61 L 667.91 363.65 L 669.46 363.69 L 671.01 363.72 L 672.56 363.76 L 674.11 363.79 L 675.67 363.83 L 677.22 363.86 L 678.77 363.89 L 680.32 363.93 L 681.87 363.96 L 683.42 363.99 L 684.97 364.02 L 686.53 364.05 L 688.08 364.08 L 689.63 364.11 L 691.18 364.14 L 692.73 364.17 L 694.28 364.20 L 695.83 364.22 L 697.38 364.25 L 698.94 364.28 L 700.49 364.30 L 702.04 364.33 L 703.59 364.36 L 705.14 364.38 L 706.69 364.40 L 708.24 364.43 L 709.79 364.45 L 711.35 364.48 L 712.90 364.50 L 714.45 364.52 L 716.00 364.54 L 716.00 366.00 Z" fill="url(#hatch)"/>
  <path d="M 66.00 366.00 L 67.55 366.00 L 69.10 366.00 L 70.65 366.00 L 72.21 366.00 L 73.76 366.00 L 75.31 366.00 L 76.86 365.99 L 78.41 365.97 L 79.96 365.94 L 81.51 365.87 L 83.06 365.77 L 84.62 365.60 L 86.17 365.36 L 87.72 365.01 L 89.27 364.53 L 90.82 363.90 L 92.37 363.08 L 93.92 362.07 L 95.47 360.83 L 97.03 359.34 L 98.58 357.58 L 100.13 355.54 L 101.68 353.21 L 103.23 350.58 L 104.78 347.64 L 106.33 344.40 L 107.89 340.85 L 109.44 337.01 L 110.99 332.87 L 112.54 328.47 L 114.09 323.79 L 115.64 318.88 L 117.19 313.73 L 118.74 308.38 L 120.30 302.84 L 121.85 297.13 L 123.40 291.28 L 124.95 285.31 L 126.50 279.24 L 128.05 273.09 L 129.60 266.88 L 131.16 260.65 L 132.71 254.40 L 134.26 248.16 L 135.81 241.94 L 137.36 235.78 L 138.91 229.67 L 140.46 223.65 L 142.01 217.72 L 143.57 211.90 L 145.12 206.20 L 146.67 200.64 L 148.22 195.22 L 149.77 189.95 L 151.32 184.85 L 152.87 179.92 L 154.42 175.17 L 155.98 170.60 L 157.53 166.22 L 159.08 162.03 L 160.63 158.03 L 162.18 154.24 L 163.73 150.64 L 165.28 147.24 L 166.84 144.05 L 168.39 141.05 L 169.94 138.25 L 171.49 135.66 L 173.04 133.25 L 174.59 131.04 L 176.14 129.02 L 177.69 127.19 L 179.25 125.55 L 180.80 124.08 L 182.35 122.79 L 183.90 121.68 L 185.45 120.74 L 187.00 119.95 L 188.55 119.33 L 190.11 118.87 L 191.66 118.56 L 193.21 118.39 L 194.76 118.36 L 196.31 118.47 L 197.86 118.71 L 199.41 119.08 L 200.96 119.57 L 202.52 120.17 L 204.07 120.89 L 205.62 121.71 L 207.17 122.64 L 208.72 123.67 L 210.27 124.78 L 211.82 125.99 L 213.37 127.28 L 214.93 128.65 L 216.48 130.10 L 218.03 131.62 L 219.58 133.21 L 221.13 134.86 L 222.68 136.57 L 224.23 138.34 L 225.79 140.16 L 227.34 142.03 L 228.89 143.94 L 230.44 145.90 L 231.99 147.90 L 233.54 149.93 L 235.09 151.99 L 236.64 154.09 L 238.20 156.21 L 239.75 158.36 L 241.30 160.53 L 242.85 162.73 L 244.40 164.93 L 245.95 167.16 L 247.50 169.40 L 249.05 171.64 L 250.61 173.90 L 252.16 176.17 L 253.71 178.43 L 255.26 180.71 L 256.81 182.98 L 258.36 185.26 L 259.91 187.53 L 261.47 189.80 L 263.02 192.07 L 264.57 194.33 L 266.12 196.59 L 267.67 198.84 L 269.22 201.08 L 270.77 203.31 L 272.32 205.52 L 273.88 207.73 L 275.43 209.93 L 276.98 212.11 L 278.53 214.27 L 280.08 216.42 L 281.63 218.56 L 283.18 220.68 L 284.74 222.78 L 286.29 224.87 L 287.84 226.94 L 289.39 228.99 L 290.94 231.02 L 292.49 233.03 L 294.04 235.02 L 295.59 237.00 L 297.15 238.95 L 298.70 240.88 L 300.25 242.80 L 301.80 244.69 L 303.35 246.56 L 304.90 248.41 L 306.45 250.23 L 308.00 252.04 L 309.56 253.83 L 311.11 255.59 L 312.66 257.33 L 314.21 259.05 L 315.76 260.75 L 317.31 262.43 L 318.86 264.09 L 320.42 265.72 L 321.97 267.33 L 323.52 268.92 L 325.07 270.49 L 326.62 272.04 L 328.17 273.57 L 329.72 275.08 L 331.27 276.56 L 332.83 278.03 L 334.38 279.47 L 335.93 280.89 L 337.48 282.30 L 339.03 283.68 L 340.58 285.04 L 342.13 286.38 L 343.68 287.70 L 345.24 289.01 L 346.79 290.29 L 348.34 291.55 L 349.89 292.80 L 351.44 294.02 L 352.99 295.23 L 354.54 296.42 L 356.10 297.59 L 357.65 298.74 L 359.20 299.87 L 360.75 300.99 L 362.30 302.09 L 363.85 303.17 L 365.40 304.23 L 366.95 305.28 L 368.51 306.31 L 370.06 307.32 L 371.61 308.32 L 373.16 309.30 L 374.71 310.26 L 376.26 311.21 L 377.81 312.15 L 379.37 313.07 L 380.92 313.97 L 382.47 314.86 L 384.02 315.73 L 385.57 316.59 L 387.12 317.44 L 388.67 318.27 L 390.22 319.09 L 391.78 319.89 L 393.33 320.68 L 394.88 321.46 L 396.43 322.22 L 397.98 322.97 L 399.53 323.71 L 401.08 324.44 L 402.63 325.15 L 404.19 325.85 L 405.74 326.54 L 407.29 327.22 L 408.84 327.89 L 410.39 328.55 L 411.94 329.19 L 413.49 329.82 L 415.05 330.44 L 416.60 331.06 L 418.15 331.66 L 419.70 332.25 L 421.25 332.83 L 422.80 333.40 L 424.35 333.96 L 425.90 334.51 L 427.46 335.05 L 429.01 335.59 L 430.56 336.11 L 432.11 336.62 L 433.66 337.13 L 435.21 337.62 L 436.76 338.11 L 438.32 338.59 L 439.87 339.06 L 441.42 339.52 L 442.97 339.98 L 444.52 340.43 L 446.07 340.86 L 447.62 341.30 L 449.17 341.72 L 450.73 342.14 L 452.28 342.55 L 453.83 342.95 L 455.38 343.34 L 456.93 343.73 L 458.48 344.11 L 460.03 344.49 L 461.58 344.85 L 463.14 345.22 L 464.69 345.57 L 466.24 345.92 L 467.79 346.26 L 469.34 346.60 L 470.89 346.93 L 472.44 347.26 L 474.00 347.58 L 475.55 347.89 L 477.10 348.20 L 478.65 348.50 L 480.20 348.80 L 481.75 349.09 L 483.30 349.38 L 484.85 349.66 L 486.41 349.94 L 487.96 350.21 L 489.51 350.48 L 491.06 350.74 L 492.61 351.00 L 494.16 351.26 L 495.71 351.51 L 497.26 351.75 L 498.82 351.99 L 500.37 352.23 L 501.92 352.46 L 503.47 352.69 L 505.02 352.92 L 506.57 353.14 L 508.12 353.35 L 509.68 353.57 L 511.23 353.78 L 512.78 353.98 L 514.33 354.18 L 515.88 354.38 L 517.43 354.58 L 518.98 354.77 L 520.53 354.96 L 522.09 355.14 L 523.64 355.32 L 525.19 355.50 L 526.74 355.68 L 528.29 355.85 L 529.84 356.02 L 531.39 356.19 L 532.95 356.35 L 534.50 356.51 L 536.05 356.67 L 537.60 356.82 L 539.15 356.98 L 540.70 357.13 L 542.25 357.27 L 543.80 357.42 L 545.36 357.56 L 546.91 357.70 L 548.46 357.84 L 550.01 357.97 L 551.56 358.11 L 553.11 358.24 L 554.66 358.36 L 556.21 358.49 L 557.77 358.61 L 559.32 358.74 L 560.87 358.86 L 562.42 358.97 L 563.97 359.09 L 565.52 359.20 L 567.07 359.31 L 568.63 359.42 L 570.18 359.53 L 571.73 359.64 L 573.28 359.74 L 574.83 359.84 L 576.38 359.94 L 577.93 360.04 L 579.48 360.14 L 581.04 360.23 L 582.59 360.33 L 584.14 360.42 L 585.69 360.51 L 587.24 360.60 L 588.79 360.69 L 590.34 360.77 L 591.89 360.86 L 593.45 360.94 L 595.00 361.02 L 596.55 361.10 L 598.10 361.18 L 599.65 361.26 L 601.20 361.34 L 602.75 361.41 L 604.31 361.49 L 605.86 361.56 L 607.41 361.63 L 608.96 361.70 L 610.51 361.77 L 612.06 361.84 L 613.61 361.90 L 615.16 361.97 L 616.72 362.03 L 618.27 362.10 L 619.82 362.16 L 621.37 362.22 L 622.92 362.28 L 624.47 362.34 L 626.02 362.40 L 627.58 362.46 L 629.13 362.51 L 630.68 362.57 L 632.23 362.62 L 633.78 362.67 L 635.33 362.73 L 636.88 362.78 L 638.43 362.83 L 639.99 362.88 L 641.54 362.93 L 643.09 362.98 L 644.64 363.03 L 646.19 363.07 L 647.74 363.12 L 649.29 363.16 L 650.84 363.21 L 652.40 363.25 L 653.95 363.29 L 655.50 363.34 L 657.05 363.38 L 658.60 363.42 L 660.15 363.46 L 661.70 363.50 L 663.26 363.54 L 664.81 363.58 L 666.36 363.61 L 667.91 363.65 L 669.46 363.69 L 671.01 363.72 L 672.56 363.76 L 674.11 363.79 L 675.67 363.83 L 677.22 363.86 L 678.77 363.89 L 680.32 363.93 L 681.87 363.96 L 683.42 363.99 L 684.97 364.02 L 686.53 364.05 L 688.08 364.08 L 689.63 364.11 L 691.18 364.14 L 692.73 364.17 L 694.28 364.20 L 695.83 364.22 L 697.38 364.25 L 698.94 364.28 L 700.49 364.30 L 702.04 364.33 L 703.59 364.36 L 705.14 364.38 L 706.69 364.40 L 708.24 364.43 L 709.79 364.45 L 711.35 364.48 L 712.90 364.50 L 714.45 364.52 L 716.00 364.54" fill="none" stroke="#2b3a4a" stroke-width="2.1"/>

  <!-- x axis -->
  <line x1="66.0" y1="366.0" x2="716.0" y2="366.0" stroke="#9aa6b2" stroke-width="1.2"/>
  <text x="72.0" y="386.0" text-anchor="start" font-size="11.5" fill="#6b7280">ordinary conditions</text>
  <text x="716.0" y="386.0" text-anchor="end" font-size="11.5" fill="#6b7280">rare &#183; edge conditions</text>
  <text x="391.0" y="410.0" text-anchor="middle" font-size="12.5" fill="#475569">Operating conditions a site produces &#8594;</text>

  <!-- demo label -->
  <text x="213.0" y="94.4" text-anchor="middle" font-size="15.5" font-weight="700" fill="#20304a">Demos live here</text>
  <text x="213.0" y="109.4" text-anchor="middle" font-size="11.5" fill="#5b6b82">a narrow, curated band</text>

  <!-- deployment label + pointer -->
  <text x="565" y="150" text-anchor="middle" font-size="15.5" font-weight="700" fill="#7a4f22">Deployment is judged here</text>
  <text x="565" y="168" text-anchor="middle" font-size="11.5" fill="#8a6a45">the long tail &#8212; rare conditions,</text>
  <text x="565" y="183" text-anchor="middle" font-size="11.5" fill="#8a6a45">real consequences</text>
  <text x="565" y="205" text-anchor="middle" font-size="11" fill="#a1743f">incidents &#183; liability &#183; renewals</text>
  <path d="M 505 214 C 470 250, 440 285, 412 312" fill="none" stroke="#6b7280" stroke-width="1.3" marker-end="url(#arrow)"/>
</svg>